# xmcd
#
# Track frame offsets:
#	150
#	20536
#	37832
#	54276
#	66157
#	85435
#	101076
#	118108
#	134081
#	151567
#	167864
#	183040
#	197443
#	215213
#	228867
#	246303
#	262088
#	275431
#	296661
#
# Disc length: 4160 seconds
#
# Revision: 1
# Processed by: cddbd v1.5.2PL0 Copyright (c) Steve Scherf et al.
# Submitted via: audiograbber 1.83.01
#
DISCID=14103e13
DTITLE=Various Artist - Multi Hott Country # 129
DYEAR=2006
DGENRE=Country
TTITLE0=Rascal Flats - Life Is A Highway
TTITLE1=Ashley Monroe - I Don't Want To
TTITLE2=Gary Nichols - I Can't Love You Anymore
TTITLE3=Willie Nelson - Songbird
TTITLE4=Brooks and Dunn - Hillbilly Deluxe
TTITLE5=Gord Bamford - We're All Cowboys
TTITLE6=Lindsey Haun - Broken
TTITLE7=Doc Walker - Trying To Get Back To You
TTITLE8=Brian Littrell - Wish
TTITLE9=Josh Gracin - I Keep Coming Back
TTITLE10=Duane Steele - Ghost Town
TTITLE11=Megon Morrison - Party Girl
TTITLE12=Keith Anderson - Podunk
TTITLE13=After Tuesday - Helplessly Hoping
TTITLE14=Gretchen Wilson Ft John Rich - Come To Bed
TTITLE15=Blaine Larsen - Rockin'  You Tonight
TTITLE16=Danielle Peck - Isn't That Everything
TTITLE17=Lee Roy Parnell - Daddies And Daughters
TTITLE18=Dolly Parton and Ricky Van Shelton - Rockin' Years
EXTD=previous submission had artists/tracks reversed
EXTT0=
EXTT1=
EXTT2=
EXTT3=
EXTT4=
EXTT5=
EXTT6=
EXTT7=
EXTT8=
EXTT9=
EXTT10=
EXTT11=
EXTT12=
EXTT13=
EXTT14=
EXTT15=
EXTT16=
EXTT17=
EXTT18=
PLAYORDER=
